# xmcd
#
# Track frame offsets:
# 150
# 16778
# 37558
# 60971
# 80881
# 101251
# 123918
# 145271
#
# Disc length: 2128 seconds
#
#
# Revision: 0
# Processed by: cddbd v1.5.1PL0 Copyright (c) Steve Scherf et al.
# Submitted via: FreeRIP 2.942 
#
DISCID=53084e08
DTITLE=Boom Boom! - Rougher Than The Rest
DYEAR=1900
DGENRE=Blues
TTITLE0=Back Up Against The Wall
TTITLE1=Hard To Be
TTITLE2=Tougher Than The Rest
TTITLE3=King Of The New York Streets
TTITLE4=Start The Car
TTITLE5=People Get Ready
TTITLE6=Brown Eyed Girl
TTITLE7=Boom Boom - Out Go The Lights
EXTD=
EXTT0=
EXTT1=
EXTT2=
EXTT3=
EXTT4=
EXTT5=
EXTT6=
EXTT7=
PLAYORDER=
